<svg width="24" height="22" viewBox="0 0 24 22" fill="none" xmlns="http://www.w3.org/2000/svg">
<path d="M23.9191 7.30118L12.891 18.3292C12.8397 18.3805 12.7701 18.4093 12.6976 18.4093C12.625 18.4093 12.5555 18.3805 12.5042 18.3292L6.33012 12.1552C6.27882 12.1039 6.25 12.0343 6.25 11.9617C6.25 11.8892 6.27882 11.8196 6.33012 11.7683L17.3581 0.740273C17.4094 0.688975 17.479 0.660156 17.5515 0.660156C17.6241 0.660156 17.6937 0.688975 17.745 0.740273L23.919 6.91432C23.9444 6.93972 23.9646 6.96987 23.9783 7.00306C23.9921 7.03624 23.9992 7.07181 23.9992 7.10774C23.9992 7.14366 23.9921 7.17924 23.9784 7.21243C23.9646 7.24562 23.9445 7.27578 23.9191 7.30118Z" fill="#5CC45C"/>
<path d="M23.9198 6.91703L22.2567 5.25391L10.8418 16.6688L12.5049 18.3319C12.5562 18.3832 12.6258 18.4121 12.6984 18.4121C12.7709 18.4121 12.8405 18.3832 12.8918 18.3319L23.9198 7.30389C23.9711 7.25259 23.9999 7.18301 23.9999 7.11046C23.9999 7.03791 23.9711 6.96833 23.9198 6.91703Z" fill="#4EAD4E"/>
<path d="M8.70061 12.6804C8.94122 12.2352 8.94122 11.6935 8.70061 11.2483C8.66831 11.1885 8.67764 11.115 8.72569 11.0669L16.6548 3.1378C16.7029 3.08975 16.7764 3.08042 16.8362 3.11277C17.2813 3.35338 17.823 3.35338 18.2683 3.11272C18.328 3.08042 18.4016 3.08975 18.4496 3.13775L21.5248 6.21289C21.5728 6.26094 21.5821 6.33449 21.5498 6.39425C21.3091 6.83947 21.3091 7.38111 21.5498 7.82633C21.5821 7.8861 21.5728 7.95964 21.5248 8.00769L13.5956 15.9369C13.5475 15.9849 13.474 15.9943 13.4142 15.962C12.969 15.7213 12.4273 15.7213 11.9822 15.962C11.9224 15.9943 11.8489 15.9849 11.8008 15.9369L8.72569 12.8617C8.67764 12.8137 8.66831 12.7401 8.70061 12.6804Z" fill="#A0E557"/>
<path d="M21.549 7.8255C21.3083 7.38028 21.3083 6.83864 21.549 6.39342C21.5813 6.33366 21.5719 6.26011 21.5239 6.21206L19.7533 4.44141C19.4352 4.93542 19.4352 5.57597 19.7533 6.06998L11.6578 14.1654C11.1638 13.8473 10.5232 13.8474 10.0293 14.1654L11.8 15.936C11.848 15.9841 11.9215 15.9934 11.9813 15.9611C12.4264 15.7205 12.9681 15.7205 13.4133 15.9611C13.4731 15.9934 13.5467 15.9841 13.5947 15.936L21.5239 8.00686C21.5719 7.95886 21.5813 7.88527 21.549 7.8255Z" fill="#93CC4A"/>
<path d="M16.7163 11.1274C17.5946 10.249 17.5946 8.825 16.7163 7.9467C15.8379 7.0684 14.4139 7.06843 13.5356 7.94675C12.6573 8.82508 12.6573 10.2491 13.5357 11.1274C14.414 12.0057 15.838 12.0057 16.7163 11.1274Z" fill="#F3E8D7"/>
<path d="M12.4582 14.8782L15.8514 11.485C16.2424 11.094 16.4087 10.6263 16.0177 10.2352C15.4013 9.4699 13.1516 10.0836 12.0844 11.1508C11.608 11.6272 11.1317 12.1036 10.6555 12.5801C10.497 12.7386 10.2822 12.8277 10.0553 12.8277H10.0436C9.66923 12.8277 9.23072 12.4651 9.13416 12.1034L9.13392 8.96792L9.69384 8.408L10.309 7.79281L12.7523 5.3495C11.7472 5.23686 10.7476 5.17592 10.3598 5.12947C9.92878 5.07781 9.56109 5.27098 9.22655 5.54773L6.09862 8.01542C5.65727 8.38066 5.33886 8.87274 5.18653 9.425C4.84505 10.6619 4.12575 12.8499 3.66923 13.72L1.38867 16.0006L5.33695 19.9489L6.43505 18.8508C6.64142 18.6444 6.89662 18.4935 7.17694 18.4122L9.4703 17.64C10.1907 17.3928 10.825 16.9438 11.2974 16.3463L12.4582 14.8782Z" fill="#FCD7C3"/>
<path d="M11.298 16.3453L12.4587 14.8773L15.852 11.484C16.243 11.093 16.4092 10.6253 16.0182 10.2343C15.7917 9.95292 15.3444 9.85799 14.8162 9.90342C14.0427 9.96993 13.3219 10.3236 12.7729 10.8726L10.6134 13.032L9.45267 14.5C8.98025 15.0975 8.34604 15.5466 7.62558 15.7937L5.33222 16.5659C5.05189 16.6472 4.79667 16.7981 4.59028 17.0045L3.49219 18.1026L5.33747 19.9478L6.43556 18.8497C6.64193 18.6434 6.89714 18.4925 7.17745 18.4112L9.47081 17.639C10.1913 17.3918 10.8255 16.9428 11.298 16.3453Z" fill="#FFCDAC"/>
<path d="M4.69678 21.2119L0.127032 16.6421C0.0867588 16.6019 0.0548115 16.5541 0.033015 16.5015C0.0112186 16.4488 0 16.3925 0 16.3355C0 16.2786 0.0112186 16.2222 0.033015 16.1696C0.0548115 16.1169 0.0867588 16.0691 0.127032 16.0289L0.93122 15.2247C0.971484 15.1844 1.01929 15.1525 1.0719 15.1307C1.12451 15.1089 1.1809 15.0977 1.23785 15.0977C1.2948 15.0977 1.35119 15.1089 1.40381 15.1307C1.45642 15.1525 1.50422 15.1844 1.54449 15.2247L6.11428 19.7945C6.15456 19.8347 6.1865 19.8826 6.2083 19.9352C6.2301 19.9878 6.24131 20.0442 6.24131 20.1011C6.24131 20.1581 6.2301 20.2145 6.2083 20.2671C6.1865 20.3197 6.15456 20.3675 6.11428 20.4078L5.31009 21.2119C5.26983 21.2522 5.22202 21.2841 5.16941 21.3059C5.1168 21.3277 5.0604 21.3389 5.00345 21.339C4.9465 21.339 4.8901 21.3277 4.83748 21.3059C4.78486 21.2842 4.73705 21.2522 4.69678 21.2119Z" fill="#464C50"/>
<path d="M6.11386 19.7941L4.56394 18.2441L3.14648 19.6616L4.69641 21.2115C4.73667 21.2518 4.78447 21.2837 4.83709 21.3055C4.8897 21.3273 4.94609 21.3385 5.00304 21.3385C5.05999 21.3385 5.11638 21.3273 5.16899 21.3055C5.2216 21.2837 5.26941 21.2518 5.30967 21.2115L6.11381 20.4074C6.15409 20.3671 6.18604 20.3193 6.20784 20.2667C6.22964 20.2141 6.24087 20.1577 6.24087 20.1007C6.24088 20.0438 6.22966 19.9874 6.20787 19.9348C6.18608 19.8821 6.15413 19.8343 6.11386 19.7941Z" fill="#33393A"/>
<path d="M15.7174 11.3788C15.2671 10.9284 14.5369 10.9284 14.0866 11.3788L13.5743 11.8911C13.3424 12.1229 13.3424 12.4988 13.5743 12.7306L14.0898 13.2462L15.8373 11.4987L15.7174 11.3788Z" fill="#EFEFEF"/>
</svg>
