<svg width="24" height="24" viewBox="0 0 24 24" fill="none" xmlns="http://www.w3.org/2000/svg">
<path d="M22.4398 12.8004L7.89722 20.8041C7.51432 21.0147 7.06343 21.0646 6.64373 20.9428C6.22403 20.821 5.86989 20.5375 5.65922 20.1546L1.22733 12.1026C1.01681 11.7198 0.966962 11.269 1.08874 10.8494C1.21052 10.4298 1.49396 10.0757 1.87675 9.865L16.419 1.8603C16.8019 1.64966 17.2528 1.59975 17.6725 1.72154C18.0922 1.84332 18.4463 2.12683 18.657 2.50971L23.0889 10.5621C23.2994 10.9449 23.3492 11.3957 23.2275 11.8153C23.1057 12.235 22.8222 12.589 22.4395 12.7997L22.4398 12.8004Z" fill="#FEBC1F"/>
<path d="M22.1238 12.2223L7.58081 20.2259C7.19791 20.4366 6.74702 20.4865 6.32732 20.3647C5.90762 20.2429 5.55349 19.9594 5.34281 19.5765L0.910927 11.5245C0.700406 11.1417 0.650555 10.6909 0.772336 10.2712C0.894117 9.85163 1.17756 9.49755 1.56034 9.28688L16.1029 1.28217C16.4858 1.07154 16.9367 1.02162 17.3564 1.14341C17.7761 1.2652 18.1302 1.54871 18.3409 1.93158L22.7728 9.98394C22.9833 10.3668 23.0332 10.8176 22.9114 11.2372C22.7896 11.6568 22.5062 12.0109 22.1234 12.2216L22.1238 12.2223Z" fill="#FFD475"/>
<path d="M16.1031 1.28368L1.56049 9.28732C1.17761 9.498 0.894103 9.85214 0.772317 10.2718C0.650531 10.6915 0.700443 11.1424 0.911076 11.5253L5.34296 19.578C5.34296 19.578 1.21355 11.6806 17.5734 1.2265C17.3408 1.1211 17.0867 1.07139 16.8315 1.08132C16.5763 1.09124 16.3269 1.16053 16.1031 1.28368Z" fill="#FEBC1F"/>
<path d="M2.21362 12.5111L2.77021 13.5223C2.8376 13.6446 2.95081 13.7352 3.08496 13.7741C3.21911 13.8131 3.36322 13.7971 3.48562 13.7298L18.8273 5.28641C18.9496 5.21902 19.0402 5.10581 19.0791 4.97166C19.118 4.83751 19.1021 4.6934 19.0348 4.571L18.4782 3.55982C18.4108 3.43747 18.2976 3.34689 18.1635 3.30797C18.0293 3.26906 17.8852 3.285 17.7628 3.35229L2.42115 11.7957C2.2988 11.8631 2.20822 11.9763 2.1693 12.1105C2.13039 12.2446 2.14633 12.3887 2.21362 12.5111Z" fill="#1D2943"/>
<path d="M2.05967 12.2318L2.61626 13.243C2.68365 13.3653 2.79686 13.4559 2.93101 13.4948C3.06516 13.5338 3.20927 13.5178 3.33167 13.4505L18.6733 5.00711C18.7957 4.93972 18.8863 4.82651 18.9252 4.69236C18.9641 4.55821 18.9481 4.4141 18.8809 4.2917L18.3243 3.28052C18.2569 3.15818 18.1437 3.06759 18.0095 3.02868C17.8754 2.98976 17.7313 3.0057 17.6089 3.07299L2.26685 11.5168C2.1445 11.5841 2.05392 11.6974 2.015 11.8315C1.97609 11.9657 1.99203 12.1098 2.05932 12.2322L2.05967 12.2318Z" fill="#4C5C75"/>
<path d="M19.8115 22.9223H3.21234C2.77535 22.9223 2.35626 22.7487 2.04723 22.4397C1.7382 22.1308 1.56455 21.7117 1.56445 21.2747V12.0831C1.56455 11.6461 1.7382 11.227 2.04723 10.9181C2.35626 10.6091 2.77535 10.4355 3.21234 10.4355H19.8112C20.2481 10.4355 20.6672 10.6091 20.9763 10.9181C21.2853 11.227 21.4589 11.6461 21.459 12.0831V21.2747C21.4589 21.7117 21.2853 22.1308 20.9763 22.4397C20.6672 22.7487 20.2485 22.9223 19.8115 22.9223Z" fill="#5094FF"/>
<path d="M3.21198 22.2644H19.8112C20.0276 22.2644 20.2419 22.2219 20.4419 22.1391C20.6419 22.0563 20.8236 21.9349 20.9766 21.7819C21.1297 21.6288 21.2511 21.4472 21.3339 21.2472C21.4168 21.0473 21.4594 20.833 21.4594 20.6165V11.4252C21.4594 10.9882 21.2858 10.569 20.9767 10.26C20.6677 9.95096 20.2486 9.77734 19.8115 9.77734H3.21234C2.99593 9.77734 2.78165 9.81997 2.58172 9.90278C2.38179 9.9856 2.20013 10.107 2.04711 10.26C1.89409 10.413 1.7727 10.5947 1.68989 10.7946C1.60708 10.9945 1.56445 11.2088 1.56445 11.4252V20.6165C1.56441 20.833 1.607 21.0473 1.68979 21.2472C1.77258 21.4472 1.89396 21.6289 2.04698 21.782C2.20001 21.935 2.38168 22.0564 2.58164 22.1393C2.78159 22.2221 2.9959 22.2648 3.21234 22.2648L3.21198 22.2644Z" fill="#57B3FE"/>
<path d="M3.21065 9.7777H19.8098C20.2468 9.7777 20.6659 9.95126 20.9749 10.2602C21.284 10.5692 21.4576 10.9882 21.4577 11.4252V20.6165C21.4577 20.6165 21.2682 11.7069 1.89453 10.4363C2.04754 10.2317 2.24613 10.0657 2.47453 9.9513C2.70293 9.83692 2.95485 9.77736 3.2103 9.77734L3.21065 9.7777Z" fill="#5094FF"/>
<path d="M20.1684 19.3053V19.5608H20.1648C20.1715 19.9067 19.8832 20.1972 19.5352 20.1972H17.8633C17.522 20.1972 17.2269 19.912 17.234 19.5608H17.2305V19.3053H17.2714C17.3702 19.0568 17.6388 18.8867 17.9212 18.8867H19.4776C19.76 18.8867 20.0286 19.0568 20.1274 19.3053H20.1684Z" fill="#E3E7F0"/>
<path d="M19.5323 19.9446H17.9162C17.5908 19.9446 17.283 19.7236 17.2372 19.4011C17.2239 19.3106 17.2303 19.2184 17.2559 19.1306C17.2815 19.0428 17.3257 18.9616 17.3855 18.8924C17.4452 18.8233 17.5192 18.7678 17.6023 18.7297C17.6854 18.6917 17.7757 18.6719 17.8672 18.6719H19.4769C19.8221 18.6719 20.144 18.9225 20.1648 19.2669C20.1708 19.3537 20.1588 19.4407 20.1297 19.5226C20.1006 19.6045 20.055 19.6796 19.9957 19.7431C19.9364 19.8066 19.8647 19.8573 19.785 19.892C19.7053 19.9266 19.6193 19.9445 19.5323 19.9446Z" fill="white"/>
<path d="M15.3754 19.3053V19.5608H15.3719C15.3789 19.9067 15.0902 20.1972 14.7426 20.1972H13.0707C12.729 20.1972 12.4343 19.912 12.441 19.5608H12.4375V19.3053H12.4784C12.5773 19.0568 12.8462 18.8867 13.1286 18.8867H14.6847C14.967 18.8867 15.236 19.0568 15.3348 19.3053H15.3754Z" fill="#E3E7F0"/>
<path d="M14.7413 19.9446H13.1249C12.7994 19.9446 12.4917 19.7236 12.4461 19.4011C12.4329 19.3106 12.4393 19.2184 12.4649 19.1307C12.4905 19.0429 12.5346 18.9617 12.5943 18.8926C12.6541 18.8234 12.728 18.7679 12.811 18.7298C12.8941 18.6917 12.9844 18.672 13.0758 18.6719H14.6856C15.0311 18.6719 15.3526 18.9225 15.3738 19.2669C15.3797 19.3537 15.3678 19.4407 15.3387 19.5226C15.3096 19.6045 15.264 19.6796 15.2047 19.7431C15.1454 19.8066 15.0737 19.8573 14.9939 19.892C14.9142 19.9266 14.8282 19.9445 14.7413 19.9446Z" fill="white"/>
<path d="M10.5847 19.3053V19.5608H10.5812C10.5879 19.9067 10.2995 20.1972 9.95154 20.1972H8.27966C7.93801 20.1972 7.64331 19.912 7.65001 19.5608H7.64648V19.3053H7.68778C7.7866 19.0568 8.05519 18.8867 8.33754 18.8867H9.89401C10.1764 18.8867 10.445 19.0568 10.5438 19.3053H10.5847Z" fill="#E3E7F0"/>
<path d="M9.95031 19.9446H8.33419C8.00878 19.9446 7.70102 19.7236 7.65513 19.4011C7.64191 19.3106 7.64832 19.2184 7.67391 19.1306C7.6995 19.0428 7.74368 18.9616 7.80344 18.8924C7.8632 18.8233 7.93715 18.7678 8.02027 18.7297C8.10339 18.6917 8.19372 18.6719 8.28513 18.6719H9.89454C10.2404 18.6719 10.5616 18.9225 10.5828 19.2669C10.5887 19.3537 10.5768 19.4407 10.5477 19.5226C10.5186 19.6045 10.473 19.6796 10.4137 19.7431C10.3544 19.8066 10.2826 19.8573 10.2029 19.892C10.1232 19.9266 10.0372 19.9445 9.95031 19.9446Z" fill="white"/>
<path d="M5.79335 19.3053V19.5608H5.78982C5.79688 19.9067 5.50817 20.1972 5.16053 20.1972H3.48865C3.147 20.1972 2.85229 19.912 2.859 19.5608H2.85547V19.3053H2.89641C2.99523 19.0568 3.26382 18.8867 3.54653 18.8867H5.10264C5.385 18.8867 5.65394 19.0568 5.75241 19.3053H5.79335Z" fill="#E3E7F0"/>
<path d="M5.15734 19.9446H3.54087C3.21546 19.9446 2.90769 19.7236 2.86216 19.4011C2.84895 19.3106 2.85534 19.2184 2.88091 19.1307C2.90648 19.0429 2.95063 18.9617 3.01036 18.8926C3.07008 18.8234 3.14399 18.7679 3.22706 18.7298C3.31013 18.6917 3.40043 18.672 3.49181 18.6719H5.10158C5.44711 18.6719 5.76863 18.9225 5.78981 19.2669C5.79576 19.3537 5.78382 19.4407 5.75473 19.5226C5.72565 19.6045 5.68003 19.6796 5.62072 19.7431C5.56142 19.8066 5.48968 19.8573 5.40996 19.892C5.33025 19.9266 5.24426 19.9445 5.15734 19.9446Z" fill="white"/>
<path d="M2.85547 12.6805V14.2179C2.85547 14.6055 3.16959 14.9196 3.55712 14.9196H6.43641C6.82394 14.9196 7.13806 14.6055 7.13806 14.2179V12.6805C7.13806 12.293 6.82394 11.9785 6.43641 11.9785H3.55712C3.16959 11.9785 2.85547 12.2926 2.85547 12.6805Z" fill="#FEBC1F"/>
<path d="M2.85547 12.4403V13.9777C2.85547 14.3652 3.16959 14.6797 3.55712 14.6797H6.43641C6.82394 14.6797 7.13806 14.3656 7.13806 13.9777V12.4403C7.13806 12.0528 6.82394 11.7383 6.43641 11.7383H3.55712C3.16959 11.7383 2.85547 12.0524 2.85547 12.4403Z" fill="#FFD475"/>
<path d="M4.92194 13.0431V11.7383H4.58841V13.0431H2.85547V13.3763H3.80347V14.6797H4.13664V13.3763H5.6377V14.6797H5.97088V13.3763H7.1377V13.0431H4.92194Z" fill="#FEBC1F"/>
<path d="M19.8627 14.1936H17.9858C17.8294 14.1936 17.6819 14.0878 17.6597 13.9328C17.6533 13.8894 17.6563 13.8451 17.6686 13.8029C17.6809 13.7607 17.7021 13.7217 17.7308 13.6884C17.7595 13.6552 17.795 13.6285 17.8349 13.6102C17.8748 13.5919 17.9182 13.5824 17.9621 13.5824H19.8363C20.0018 13.5824 20.156 13.7027 20.1663 13.8682C20.1691 13.9099 20.1634 13.9516 20.1494 13.991C20.1355 14.0303 20.1136 14.0663 20.0851 14.0968C20.0567 14.1273 20.0222 14.1517 19.984 14.1683C19.9457 14.185 19.9045 14.1936 19.8627 14.1936ZM19.8627 12.8853H16.5677C16.4113 12.8853 16.2638 12.7794 16.2416 12.6241C16.2352 12.5807 16.2383 12.5364 16.2506 12.4943C16.2629 12.4522 16.2841 12.4132 16.3128 12.38C16.3415 12.3467 16.377 12.3201 16.4169 12.3018C16.4568 12.2835 16.5001 12.274 16.544 12.274H19.8359C20.0018 12.274 20.156 12.394 20.1663 12.5599C20.1691 12.6015 20.1634 12.6433 20.1494 12.6826C20.1355 12.7219 20.1136 12.758 20.0851 12.7885C20.0567 12.819 20.0222 12.8433 19.984 12.86C19.9457 12.8766 19.9045 12.8852 19.8627 12.8853ZM19.3616 5.75977C20.1443 6.76206 20.7892 7.86484 21.2787 9.03859C20.496 8.0363 19.851 6.93352 19.3616 5.75977ZM4.74414 9.03753C5.8834 8.16438 7.12231 7.42959 8.43485 6.84859C7.29557 7.72173 6.05667 8.45652 4.74414 9.03753ZM14.1846 21.4356C15.6098 21.2659 17.0501 21.2659 18.4753 21.4356C17.0459 21.6061 15.614 21.6051 14.1846 21.4356Z" fill="white"/>
</svg>
